<?xml version="1.0" encoding="UTF-8"?>
<svg xmlns="http://www.w3.org/2000/svg" xmlns:xlink="http://www.w3.org/1999/xlink" viewBox="0 0 699.07 548.09">
  <defs>
    <style>
      .cls-1 {
        fill: url(#linear-gradient);
      }

      .cls-1, .cls-2, .cls-3, .cls-4, .cls-5, .cls-6, .cls-7, .cls-8, .cls-9, .cls-10, .cls-11, .cls-12 {
        stroke-width: 0px;
      }

      .cls-2 {
        fill: url(#linear-gradient-6);
      }

      .cls-4 {
        fill: url(#linear-gradient-5);
      }

      .cls-5 {
        fill: #0d5612;
      }

      .cls-6 {
        fill: url(#linear-gradient-2);
      }

      .cls-7 {
        fill: url(#linear-gradient-7);
      }

      .cls-8 {
        fill: url(#radial-gradient-2);
      }

      .cls-9 {
        fill: url(#linear-gradient-3);
      }

      .cls-10 {
        fill: url(#radial-gradient);
      }

      .cls-11 {
        fill: url(#linear-gradient-8);
      }

      .cls-12 {
        fill: url(#linear-gradient-4);
      }
    </style>
    <radialGradient id="radial-gradient" cx="213.81" cy="290.39" fx="213.81" fy="290.39" r="183.45" gradientTransform="translate(0 260.32) scale(1 .1)" gradientUnits="userSpaceOnUse">
      <stop offset="0" stop-color="#fff33b"/>
      <stop offset=".04" stop-color="#fee62d"/>
      <stop offset=".12" stop-color="#fdd51b"/>
      <stop offset=".2" stop-color="#fdca0f"/>
      <stop offset=".28" stop-color="#fdc70c"/>
      <stop offset=".67" stop-color="#f3903f"/>
      <stop offset=".89" stop-color="#ed683c"/>
      <stop offset="1" stop-color="#e93e3a"/>
    </radialGradient>
    <linearGradient id="linear-gradient" x1="213.81" y1="457.47" x2="213.81" y2="83.88" gradientUnits="userSpaceOnUse">
      <stop offset=".28" stop-color="#231f20"/>
      <stop offset=".43" stop-color="#6d6e71"/>
    </linearGradient>
    <linearGradient id="linear-gradient-2" x1="415.6" y1="205.93" x2="415.6" y2="41.79" xlink:href="#linear-gradient"/>
    <linearGradient id="linear-gradient-3" x1="373.33" y1="770.91" x2="373.33" y2="110.8" xlink:href="#linear-gradient"/>
    <radialGradient id="radial-gradient-2" cx="292.54" cy="174.13" fx="292.54" fy="174.13" r="183.45" gradientTransform="translate(-5.76 234.5) scale(.61 .03)" gradientUnits="userSpaceOnUse">
      <stop offset="0" stop-color="#ffffe3"/>
      <stop offset=".02" stop-color="#feffc6"/>
      <stop offset=".05" stop-color="#feff95"/>
      <stop offset=".09" stop-color="#fdff6b"/>
      <stop offset=".13" stop-color="#fdff48"/>
      <stop offset=".16" stop-color="#fdff2e"/>
      <stop offset=".2" stop-color="#fdff1b"/>
      <stop offset=".24" stop-color="#fdff0f"/>
      <stop offset=".28" stop-color="#fdff0c"/>
      <stop offset=".39" stop-color="#f9ed32"/>
      <stop offset=".89" stop-color="#fbb040"/>
      <stop offset="1" stop-color="#fbb040"/>
    </radialGradient>
    <linearGradient id="linear-gradient-4" x1="171.68" y1="278.85" x2="171.68" y2="191.67" xlink:href="#linear-gradient"/>
    <linearGradient id="linear-gradient-5" x1="610.64" y1="532.96" x2="610.64" y2="356.09" gradientUnits="userSpaceOnUse">
      <stop offset="0" stop-color="#231f20"/>
      <stop offset="1" stop-color="#6d6e71"/>
    </linearGradient>
    <linearGradient id="linear-gradient-6" x1="147.68" y1="255.91" x2="147.68" y2="123.65" gradientUnits="userSpaceOnUse">
      <stop offset="0" stop-color="#231f20"/>
      <stop offset="1" stop-color="#6d6e71"/>
    </linearGradient>
    <linearGradient id="linear-gradient-7" x1="16.73" y1="548.55" x2="16.73" y2="510.53" gradientUnits="userSpaceOnUse">
      <stop offset="0" stop-color="#000"/>
      <stop offset="1" stop-color="#262626"/>
    </linearGradient>
    <linearGradient id="linear-gradient-8" x1="16.73" y1="543.57" x2="16.73" y2="442.66" xlink:href="#linear-gradient-6"/>
  </defs>
  <g id="Health">
    <rect class="cls-10" x="46.79" y="262.28" width="334.05" height="56.22" rx="28.11" ry="28.11"/>
  </g>
  <g id="Health_Metal" data-name="Health Metal">
    <path class="cls-1" d="m362.07,249.42H65.55c-21.29,0-38.55,17.25-38.55,38.54v4.86c0,21.29,17.26,38.54,38.55,38.54h296.52c21.29,0,38.55-17.25,38.55-38.54v-4.86c0-21.29-17.26-38.54-38.55-38.54Zm-9.35,69.08H74.9c-7.77,0-14.79-3.15-19.88-8.23-5.09-5.09-8.24-12.12-8.24-19.88,0-15.53,12.59-28.11,28.12-28.11h277.82c7.77,0,14.79,3.15,19.88,8.23,5.09,5.09,8.24,12.12,8.24,19.88,0,15.53-12.59,28.11-28.12,28.11Z"/>
    <rect class="cls-6" x="334.6" y="114.52" width="162" height="36" rx="18" ry="18"/>
    <circle class="cls-9" cx="373.33" cy="475.7" r="72.39"/>
  </g>
  <g id="Stamina">
    <rect class="cls-8" x="70.37" y="233.3" width="202.62" height="13.12" rx="6.56" ry="6.56"/>
  </g>
  <g id="Stamina_Metal" data-name="Stamina Metal">
    <path class="cls-12" d="m275.43,230.3H67.93c-2.64,0-5.03,1.07-6.76,2.8-1.73,1.73-2.8,4.12-2.8,6.76,0,5.28,4.28,9.56,9.56,9.56h207.5c2.64,0,5.03-1.07,6.76-2.8s2.8-4.12,2.8-6.76c0-5.28-4.28-9.56-9.56-9.56Zm-9,16.12H76.92c-1.81,0-3.45-.73-4.63-1.92-1.19-1.19-1.92-2.83-1.92-4.64,0-3.62,2.93-6.56,6.55-6.56h189.51c1.81,0,3.45.73,4.64,1.92,1.18,1.19,1.92,2.83,1.92,4.64,0,3.62-2.94,6.56-6.56,6.56Z"/>
  </g>
  <g id="Layer_6" data-name="Layer 6">
    <path class="cls-4" d="m565.25,216h90.78c23.76,0,43.04,19.29,43.04,43.04v240.26h-176.87v-240.26c0-23.76,19.29-43.04,43.04-43.04Z"/>
    <path class="cls-3" d="m598.94,232.32h23.02c33.86,0,61.35,27.49,61.35,61.35v60.03c0,13.22-10.73,23.95-23.95,23.95h-97.83c-13,0-23.56-10.56-23.56-23.56v-60.81c0-33.65,27.32-60.96,60.96-60.96Z"/>
    <rect class="cls-2" x="81.55" width="132.26" height="211.3" rx="8.61" ry="8.61"/>
    <rect class="cls-3" x="126.65" y="15.32" width="42.07" height="180.67"/>
    <rect class="cls-7" y="474.99" width="33.46" height="60.74" rx="4.15" ry="4.15"/>
    <rect class="cls-11" x="8.02" y="348.32" width="17.41" height="161.22" rx="8.71" ry="8.71"/>
    <rect class="cls-5" x="4.01" y="348.32" width="25.43" height="84.52" rx="12.72" ry="12.72"/>
  </g>
</svg>